<svg width="32" height="32" viewBox="0 0 32 32" fill="none" xmlns="http://www.w3.org/2000/svg">
    <path d="M4.72502 6.175C4.66283 6.21459 4.60515 6.26086 4.55302 6.313L1.64302 9.223C1.23768 9.62913 1.00853 10.1785 1.00516 10.7523C1.0018 11.3261 1.22448 11.8781 1.62502 12.289L1.64402 12.309L1.73402 12.408L2.08002 12.782C2.38002 13.105 2.81102 13.57 3.34302 14.136C4.70431 15.5863 6.08072 17.0224 7.47202 18.444C10.64 21.677 14.445 25.376 16.712 26.9C19.265 28.624 21.585 29.595 23.279 30.136C24.127 30.406 24.817 30.57 25.304 30.666C25.5454 30.714 25.7881 30.7544 26.032 30.787L26.067 30.791C26.742 30.898 27.339 30.917 27.87 30.806C28.3926 30.703 28.8723 30.4456 29.247 30.067L29.947 29.367C29.999 29.315 30.044 29.258 30.083 29.198C30.3985 28.9118 30.6505 28.5626 30.8228 28.173C30.995 27.7834 31.0837 27.362 31.083 26.936C30.966 25.643 29.746 24.896 28.666 24.236C28.1225 23.9666 27.6373 23.5928 27.238 23.136L26.443 21.28H26.45C26.7285 21.28 26.9956 21.1694 27.1925 20.9725C27.3894 20.7756 27.5 20.5085 27.5 20.23C27.5 19.9515 27.3894 19.6845 27.1925 19.4875C26.9956 19.2906 26.7285 19.18 26.45 19.18H25.543L24.899 17.676C25.1263 17.5858 25.315 17.4192 25.4326 17.2048C25.5501 16.9903 25.5891 16.7416 25.5429 16.5015C25.4967 16.2614 25.3681 16.045 25.1794 15.8895C24.9906 15.7341 24.7535 15.6493 24.509 15.65H24.031L23.499 14.409C23.7737 14.3971 24.0327 14.2779 24.2204 14.0771C24.4082 13.8763 24.5097 13.6098 24.5031 13.335C24.4966 13.0602 24.3825 12.7989 24.1854 12.6072C23.9883 12.4156 23.7239 12.3089 23.449 12.31H22.6L22.189 11.35C22.127 11.2 22.089 11.092 22.057 11C21.9237 10.5631 21.675 10.1703 21.337 9.863L20.817 9.342C20.5774 9.11132 20.2874 8.93947 19.97 8.84V8.39C19.345 6.505 17.065 5.848 15.536 6.995L13.408 4.825C13.5993 4.63192 13.7506 4.40293 13.8532 4.1512C13.9557 3.89946 14.0075 3.62995 14.0055 3.35814C14.0036 3.08633 13.9479 2.81758 13.8418 2.56735C13.7356 2.31711 13.5811 2.09032 13.387 1.9C12.8035 1.31848 12.0133 0.991943 11.1895 0.991943C10.3657 0.991943 9.57552 1.31848 8.99202 1.9L4.72502 6.175ZM14.187 15.355L14.19 14.61C14.19 12.91 13.53 11.29 12.35 10.08L8.04002 5.684L10.405 3.316C10.5112 3.20937 10.639 3.12662 10.7797 3.07329C10.9205 3.01995 11.071 2.99726 11.2212 3.00673C11.3714 3.01619 11.5178 3.0576 11.6508 3.12817C11.7837 3.19875 11.9 3.29688 11.992 3.416C11.6088 3.80126 11.3936 4.32258 11.3936 4.866C11.3936 5.40942 11.6088 5.93074 11.992 6.316L16.422 10.758C16.8222 11.1437 17.3563 11.3592 17.912 11.3592C18.4678 11.3592 19.0019 11.1437 19.402 10.758L19.922 11.278C20.0439 11.3732 20.1302 11.5067 20.167 11.657L20.17 11.667C20.213 11.791 20.266 11.941 20.35 12.136L20.424 12.31H19.48C18.9 12.31 18.43 12.78 18.43 13.36C18.4329 13.6376 18.5444 13.903 18.7407 14.0993C18.937 14.2956 19.2024 14.4071 19.48 14.41H21.324L21.855 15.65H21.07C20.49 15.65 20.02 16.12 20.02 16.7C20.0229 16.9776 20.1344 17.243 20.3307 17.4393C20.527 17.6356 20.7924 17.7471 21.07 17.75H22.755L23.367 19.18H22.39C21.81 19.18 21.34 19.65 21.34 20.23C21.34 20.52 21.46 20.78 21.65 20.97C21.84 21.16 22.1 21.27 22.39 21.28H24.267L25.4 23.926C25.9233 24.8053 26.6993 25.5064 27.627 25.938L27.63 25.94C28.133 26.247 29.068 26.817 29.093 27.102C29.093 27.158 29.038 27.329 28.788 27.609C27.0789 27.3954 25.4013 26.9784 23.791 26.367C20.849 25.235 17.808 23.224 16.673 19.666L16.672 19.664C16.267 18.404 15.354 16.937 14.296 15.501C14.2598 15.4522 14.2235 15.4036 14.187 15.355ZM3.05502 10.891C3.03025 10.8607 3.01672 10.8227 3.01672 10.7835C3.01672 10.7443 3.03025 10.7064 3.05502 10.676L5.29002 8.44C6.63883 9.76209 7.94937 11.1226 9.22002 12.52C10.427 13.85 11.666 15.305 12.685 16.687C13.719 18.09 14.466 19.339 14.767 20.274C14.8133 20.42 14.8627 20.565 14.915 20.709L3.05702 10.893L3.05502 10.891Z" fill="white"/>
</svg>